<?xml version="1.0" standalone="no"?>
<!DOCTYPE svg PUBLIC "-//W3C//DTD SVG 20010904//EN"
 "http://www.w3.org/TR/2001/REC-SVG-20010904/DTD/svg10.dtd">
<svg version="1.0" xmlns="http://www.w3.org/2000/svg"
 width="600.000000pt" height="600.000000pt" viewBox="0 0 600.000000 600.000000"
 preserveAspectRatio="xMidYMid meet">
<metadata>
Created by potrace 1.14, written by Peter Selinger 2001-2017
</metadata>
<g transform="translate(0.000000,600.000000) scale(0.100000,-0.100000)"
fill="#000000" stroke="none">
<path d="M0 3000 l0 -3000 3000 0 3000 0 0 3000 0 3000 -3000 0 -3000 0 0
-3000z m5185 -591 c6 -22 3 -27 -18 -33 -21 -5 -26 -15 -36 -67 -20 -113 -96
-204 -199 -236 -52 -17 -55 -17 -68 2 -24 32 -16 43 41 60 85 24 139 81 159
168 l6 27 -130 0 -130 0 0 30 0 30 130 0 130 0 -7 32 c-6 31 -6 31 29 25 19
-3 41 -1 49 4 17 10 35 -7 44 -42z m-1167 16 c16 -35 15 -52 -4 -59 -26 -10
-34 -7 -35 12 0 13 -2 14 -6 2 -7 -18 -23 -30 -40 -30 -10 0 -33 57 -33 83 0
4 16 7 35 5 19 -1 37 1 41 5 14 14 31 7 42 -18z m768 -11 c18 -42 17 -43 -24
-49 -17 -2 -41 -6 -52 -10 -15 -5 -22 0 -30 20 -17 45 -13 65 15 65 14 0 25
-6 25 -12 0 -7 5 -5 11 5 16 27 39 20 55 -19z m-1302 -11 c-1 -22 3 -23 83
-23 95 0 95 0 66 -86 -35 -103 -114 -188 -209 -224 -70 -26 -78 -25 -94 5 -16
29 -19 26 50 49 31 10 67 27 80 37 l25 20 -23 17 c-12 9 -33 24 -45 33 -18 14
-19 19 -8 33 18 22 37 20 86 -8 l42 -25 16 35 c10 19 17 39 17 44 0 6 -27 10
-59 10 -58 0 -61 -1 -111 -50 -28 -27 -57 -50 -64 -50 -7 0 -21 9 -32 21 -18
20 -18 21 -1 31 41 22 86 71 106 114 19 39 25 45 49 42 21 -2 27 -8 26 -25z
m816 -7 c0 -34 1 -35 48 -38 43 -3 47 -5 50 -30 3 -27 2 -28 -47 -28 l-51 0 0
-120 0 -120 -30 0 -30 0 0 87 0 87 -43 -45 c-23 -24 -61 -59 -83 -76 -40 -31
-42 -32 -58 -14 -9 9 -16 21 -16 25 0 4 37 44 83 89 l82 82 -87 3 -88 3 0 29
0 30 105 0 105 0 0 28 c0 35 6 42 37 42 20 0 23 -5 23 -34z m1190 -92 c0 -131
-12 -169 -64 -209 -28 -21 -159 -55 -170 -44 -2 2 -7 16 -11 31 -7 25 -5 27
42 33 122 18 143 48 143 205 l0 100 30 0 30 0 0 -116z m-2255 74 c-4 -18 -21
-59 -38 -92 l-31 -58 21 -18 c92 -74 117 -102 107 -117 -27 -43 -41 -40 -106
24 l-63 62 -47 -43 c-26 -24 -63 -51 -83 -60 -35 -17 -38 -17 -56 0 -27 24
-24 31 22 55 54 27 121 90 158 148 17 26 31 51 31 54 0 4 -40 7 -89 7 -49 0
-96 3 -105 6 -16 6 -22 45 -9 57 3 4 71 7 150 7 l145 0 -7 -32z m538 16 c26
-9 49 -20 52 -24 8 -13 -17 -61 -29 -56 -6 3 -35 13 -63 22 -52 17 -59 26 -47
58 8 20 28 20 87 0z m770 -1 c49 -18 58 -35 35 -66 -12 -16 -17 -15 -71 7 -70
28 -71 29 -57 55 13 25 31 26 93 4z m737 -103 l0 -120 -30 0 -30 0 0 120 0
120 30 0 30 0 0 -120z m-1285 46 c18 -13 17 -16 -12 -78 -52 -110 -127 -169
-240 -187 -62 -10 -73 -5 -73 36 0 18 8 22 53 28 98 14 166 67 208 165 23 53
33 59 64 36z m768 2 c16 -12 15 -18 -12 -74 -16 -34 -45 -80 -65 -102 -40 -44
-128 -87 -194 -95 -39 -5 -44 -3 -53 21 -13 33 -6 38 65 51 98 18 152 64 192
163 20 49 36 58 67 36z m-1031 -35 c66 -25 70 -30 53 -63 l-15 -29 -57 26
c-72 32 -67 27 -59 58 7 29 20 31 78 8z m774 -4 c60 -25 56 -21 48 -53 -8 -32
-16 -32 -85 -4 -68 27 -64 23 -51 53 14 30 26 31 88 4z m994 -309 c0 -20 -11
-20 -1279 -20 -839 0 -1282 4 -1286 10 -3 6 -3 14 0 20 4 6 449 10 1286 10
1268 0 1279 0 1279 -20z m-2415 -86 c29 -19 32 -36 10 -54 -13 -10 -19 -10
-33 4 -23 20 -46 21 -62 1 -18 -22 -6 -42 37 -60 77 -32 104 -80 79 -139 -30
-72 -120 -84 -171 -24 -30 35 -29 62 2 66 15 2 23 -3 28 -18 4 -12 18 -26 31
-32 21 -10 28 -8 46 9 32 33 18 65 -41 92 -61 27 -75 43 -75 88 0 68 87 107
149 67z m1090 -4 c65 -31 103 -113 84 -182 -31 -117 -175 -164 -264 -87 -91
80 -77 216 28 268 53 26 99 27 152 1z m445 2 c47 -26 59 -47 38 -68 -16 -16
-19 -15 -48 10 -55 46 -133 26 -166 -42 -29 -61 12 -141 82 -158 26 -7 79 19
94 45 9 18 6 20 -27 23 -30 2 -39 7 -41 25 -4 27 22 36 89 31 l44 -3 -2 -43
c-2 -54 -32 -95 -83 -116 -50 -20 -70 -20 -117 -1 -47 19 -103 96 -103 142 0
67 50 143 110 166 32 12 97 6 130 -11z m-1300 -12 c0 -16 -7 -20 -35 -20 l-35
0 0 -135 0 -135 -30 0 -30 0 0 135 0 135 -35 0 c-28 0 -35 4 -35 20 0 19 7 20
100 20 93 0 100 -1 100 -20z m60 -90 c0 -104 1 -112 25 -135 31 -31 49 -31 80
0 24 23 25 31 25 135 l0 110 25 0 25 0 0 -117 c0 -99 -3 -123 -20 -150 -36
-60 -137 -66 -186 -12 -16 18 -20 41 -22 150 l-4 129 26 0 26 0 0 -110z m380
92 c51 -25 80 -74 80 -136 0 -66 -27 -111 -83 -136 -54 -25 -152 -27 -161 -4
-8 21 -8 279 1 287 14 14 128 7 163 -11z m160 -137 l0 -155 -30 0 -30 0 0 155
0 155 30 0 30 0 0 -155z m840 100 l0 -55 65 0 65 0 0 55 c0 52 1 55 25 55 l25
0 0 -155 0 -155 -25 0 c-24 0 -25 2 -25 70 l0 70 -65 0 -65 0 0 -70 c0 -68 -1
-70 -25 -70 l-25 0 0 155 0 155 25 0 c24 0 25 -3 25 -55z m270 -100 l0 -155
-25 0 -25 0 0 155 0 155 25 0 25 0 0 -155z m177 129 c22 -22 25 -32 20 -72 -4
-37 -1 -52 14 -71 26 -32 24 -74 -5 -108 -21 -24 -32 -28 -95 -31 l-71 -4 0
156 0 156 55 0 c47 0 60 -4 82 -26z m133 -104 l0 -130 45 0 c41 0 45 -2 45
-25 0 -24 -2 -25 -70 -25 l-70 0 0 155 0 155 25 0 25 0 0 -130z m150 -25 l0
-155 -25 0 -25 0 0 155 0 155 25 0 25 0 0 -155z"/>
<path d="M4054 1860 c-56 -22 -80 -100 -49 -159 13 -26 67 -61 95 -61 7 0 27
7 46 16 130 62 40 258 -92 204z"/>
<path d="M3650 1759 l0 -109 29 0 c38 0 92 38 104 74 13 38 -5 97 -35 115 -13
8 -40 18 -60 21 l-38 7 0 -108z"/>
<path d="M5120 1825 c0 -46 7 -53 41 -35 29 16 25 58 -7 70 -14 6 -27 10 -30
10 -2 0 -4 -20 -4 -45z"/>
<path d="M5120 1695 c0 -41 2 -45 24 -45 42 0 56 11 56 41 0 22 -6 32 -26 39
-47 18 -54 14 -54 -35z"/>
</g>
</svg>
